# xmcd
#
# Track frame offsets:
#	150
#	11210
#	29652
#	41731
#	57263
#	72265
#	90040
#	105098
#	122402
#	137603
#	153778
#	170998
#
# Disc length: 2547 seconds
#
# Revision: 0
# Processed by: cddbd v1.5.1PL0 Copyright (c) Steve Scherf et al.
# Submitted via: audiograbber 1.83.01
#
DISCID=9309f10c
DTITLE=James Segrest - Choices
DYEAR=2004
DGENRE=Country
TTITLE0=Home cookin
TTITLE1=Mom she took  the baby
TTITLE2=Dadblame the luck
TTITLE3=Back in the beer loints
TTITLE4=It hurts don't it
TTITLE5=You gave me a mountain
TTITLE6=She going through my change of life
TTITLE7=Man who hung the moon
TTITLE8=Choises
TTITLE9=In memory of a memory
TTITLE10=Don't take it away
TTITLE11=Walk a mile
EXTD=
EXTT0=
EXTT1=
EXTT2=
EXTT3=
EXTT4=
EXTT5=
EXTT6=
EXTT7=
EXTT8=
EXTT9=
EXTT10=
EXTT11=
PLAYORDER=
